<?xml version="1.0" encoding="utf-8" standalone="no"?>
<!DOCTYPE svg PUBLIC "-//W3C//DTD SVG 1.1//EN"
  "http://www.w3.org/Graphics/SVG/1.1/DTD/svg11.dtd">
<!-- Created with matplotlib (https://matplotlib.org/) -->
<svg height="524.88pt" version="1.1" viewBox="0 0 761.04 524.88" width="761.04pt" xmlns="http://www.w3.org/2000/svg" xmlns:xlink="http://www.w3.org/1999/xlink">
 <defs>
  <style type="text/css">
*{stroke-linecap:butt;stroke-linejoin:round;}
  </style>
 </defs>
 <g id="figure_1">
  <g id="patch_1">
   <path d="M 0 524.88 
L 761.04 524.88 
L 761.04 0 
L 0 0 
z
" style="fill:#ffffff;"/>
  </g>
  <g id="axes_1">
   <g id="patch_2">
    <path d="M 95.13 467.1432 
L 684.936 467.1432 
L 684.936 62.9856 
L 95.13 62.9856 
z
" style="fill:#ffffff;"/>
   </g>
   <g id="patch_3">
    <path clip-path="url(#pb7b7108758)" d="M 121.939364 467.1432 
L 234.820895 467.1432 
L 234.820895 428.267088 
L 121.939364 428.267088 
z
" style="fill:#1f77b4;"/>
   </g>
   <g id="patch_4">
    <path clip-path="url(#pb7b7108758)" d="M 121.939364 467.1432 
L 234.820895 467.1432 
L 234.820895 403.247808 
L 121.939364 403.247808 
z
" style="fill:#1f77b4;"/>
   </g>
   <g id="patch_5">
    <path clip-path="url(#pb7b7108758)" d="M 121.939364 467.1432 
L 234.820895 467.1432 
L 234.820895 332.424 
L 121.939364 332.424 
z
" style="fill:#1f77b4;"/>
   </g>
   <g id="patch_6">
    <path clip-path="url(#pb7b7108758)" d="M 121.939364 467.1432 
L 234.820895 467.1432 
L 234.820895 339.737328 
L 121.939364 339.737328 
z
" style="fill:#1f77b4;"/>
   </g>
   <g id="patch_7">
    <path clip-path="url(#pb7b7108758)" d="M 121.939364 467.1432 
L 234.820895 467.1432 
L 234.820895 328.189968 
L 121.939364 328.189968 
z
" style="fill:#1f77b4;"/>
   </g>
   <g id="patch_8">
    <path clip-path="url(#pb7b7108758)" d="M 121.939364 467.1432 
L 234.820895 467.1432 
L 234.820895 285.849648 
L 121.939364 285.849648 
z
" style="fill:#1f77b4;"/>
   </g>
   <g id="patch_9">
    <path clip-path="url(#pb7b7108758)" d="M 121.939364 467.1432 
L 234.820895 467.1432 
L 234.820895 390.1608 
L 121.939364 390.1608 
z
" style="fill:#1f77b4;"/>
   </g>
   <g id="patch_10">
    <path clip-path="url(#pb7b7108758)" d="M 121.939364 467.1432 
L 234.820895 467.1432 
L 234.820895 347.050656 
L 121.939364 347.050656 
z
" style="fill:#1f77b4;"/>
   </g>
   <g id="patch_11">
    <path clip-path="url(#pb7b7108758)" d="M 121.939364 467.1432 
L 234.820895 467.1432 
L 234.820895 391.700448 
L 121.939364 391.700448 
z
" style="fill:#1f77b4;"/>
   </g>
   <g id="patch_12">
    <path clip-path="url(#pb7b7108758)" d="M 121.939364 467.1432 
L 234.820895 467.1432 
L 234.820895 342.816624 
L 121.939364 342.816624 
z
" style="fill:#1f77b4;"/>
   </g>
   <g id="patch_13">
    <path clip-path="url(#pb7b7108758)" d="M 121.939364 467.1432 
L 234.820895 467.1432 
L 234.820895 401.323248 
L 121.939364 401.323248 
z
" style="fill:#1f77b4;"/>
   </g>
   <g id="patch_14">
    <path clip-path="url(#pb7b7108758)" d="M 121.939364 467.1432 
L 234.820895 467.1432 
L 234.820895 274.6872 
L 121.939364 274.6872 
z
" style="fill:#1f77b4;"/>
   </g>
   <g id="patch_15">
    <path clip-path="url(#pb7b7108758)" d="M 121.939364 467.1432 
L 234.820895 467.1432 
L 234.820895 406.712016 
L 121.939364 406.712016 
z
" style="fill:#1f77b4;"/>
   </g>
   <g id="patch_16">
    <path clip-path="url(#pb7b7108758)" d="M 121.939364 467.1432 
L 234.820895 467.1432 
L 234.820895 351.6696 
L 121.939364 351.6696 
z
" style="fill:#1f77b4;"/>
   </g>
   <g id="patch_17">
    <path clip-path="url(#pb7b7108758)" d="M 121.939364 467.1432 
L 234.820895 467.1432 
L 234.820895 350.899776 
L 121.939364 350.899776 
z
" style="fill:#1f77b4;"/>
   </g>
   <g id="patch_18">
    <path clip-path="url(#pb7b7108758)" d="M 121.939364 467.1432 
L 234.820895 467.1432 
L 234.820895 316.257696 
L 121.939364 316.257696 
z
" style="fill:#1f77b4;"/>
   </g>
   <g id="patch_19">
    <path clip-path="url(#pb7b7108758)" d="M 121.939364 467.1432 
L 234.820895 467.1432 
L 234.820895 402.862896 
L 121.939364 402.862896 
z
" style="fill:#1f77b4;"/>
   </g>
   <g id="patch_20">
    <path clip-path="url(#pb7b7108758)" d="M 121.939364 467.1432 
L 234.820895 467.1432 
L 234.820895 324.340848 
L 121.939364 324.340848 
z
" style="fill:#1f77b4;"/>
   </g>
   <g id="patch_21">
    <path clip-path="url(#pb7b7108758)" d="M 121.939364 467.1432 
L 234.820895 467.1432 
L 234.820895 332.424 
L 121.939364 332.424 
z
" style="fill:#1f77b4;"/>
   </g>
   <g id="patch_22">
    <path clip-path="url(#pb7b7108758)" d="M 263.041278 467.1432 
L 375.922809 467.1432 
L 375.922809 338.19768 
L 263.041278 338.19768 
z
" style="fill:#1f77b4;"/>
   </g>
   <g id="patch_23">
    <path clip-path="url(#pb7b7108758)" d="M 263.041278 467.1432 
L 375.922809 467.1432 
L 375.922809 310.099104 
L 263.041278 310.099104 
z
" style="fill:#1f77b4;"/>
   </g>
   <g id="patch_24">
    <path clip-path="url(#pb7b7108758)" d="M 263.041278 467.1432 
L 375.922809 467.1432 
L 375.922809 361.2924 
L 263.041278 361.2924 
z
" style="fill:#1f77b4;"/>
   </g>
   <g id="patch_25">
    <path clip-path="url(#pb7b7108758)" d="M 263.041278 467.1432 
L 375.922809 467.1432 
L 375.922809 381.307824 
L 263.041278 381.307824 
z
" style="fill:#1f77b4;"/>
   </g>
   <g id="patch_26">
    <path clip-path="url(#pb7b7108758)" d="M 263.041278 467.1432 
L 375.922809 467.1432 
L 375.922809 175.379904 
L 263.041278 175.379904 
z
" style="fill:#1f77b4;"/>
   </g>
   <g id="patch_27">
    <path clip-path="url(#pb7b7108758)" d="M 263.041278 467.1432 
L 375.922809 467.1432 
L 375.922809 344.741184 
L 263.041278 344.741184 
z
" style="fill:#1f77b4;"/>
   </g>
   <g id="patch_28">
    <path clip-path="url(#pb7b7108758)" d="M 263.041278 467.1432 
L 375.922809 467.1432 
L 375.922809 377.073792 
L 263.041278 377.073792 
z
" style="fill:#1f77b4;"/>
   </g>
   <g id="patch_29">
    <path clip-path="url(#pb7b7108758)" d="M 263.041278 467.1432 
L 375.922809 467.1432 
L 375.922809 390.1608 
L 263.041278 390.1608 
z
" style="fill:#1f77b4;"/>
   </g>
   <g id="patch_30">
    <path clip-path="url(#pb7b7108758)" d="M 263.041278 467.1432 
L 375.922809 467.1432 
L 375.922809 390.1608 
L 263.041278 390.1608 
z
" style="fill:#1f77b4;"/>
   </g>
   <g id="patch_31">
    <path clip-path="url(#pb7b7108758)" d="M 263.041278 467.1432 
L 375.922809 467.1432 
L 375.922809 301.63104 
L 263.041278 301.63104 
z
" style="fill:#1f77b4;"/>
   </g>
   <g id="patch_32">
    <path clip-path="url(#pb7b7108758)" d="M 263.041278 467.1432 
L 375.922809 467.1432 
L 375.922809 351.6696 
L 263.041278 351.6696 
z
" style="fill:#1f77b4;"/>
   </g>
   <g id="patch_33">
    <path clip-path="url(#pb7b7108758)" d="M 263.041278 467.1432 
L 375.922809 467.1432 
L 375.922809 411.33096 
L 263.041278 411.33096 
z
" style="fill:#1f77b4;"/>
   </g>
   <g id="patch_34">
    <path clip-path="url(#pb7b7108758)" d="M 263.041278 467.1432 
L 375.922809 467.1432 
L 375.922809 370.9152 
L 263.041278 370.9152 
z
" style="fill:#1f77b4;"/>
   </g>
   <g id="patch_35">
    <path clip-path="url(#pb7b7108758)" d="M 263.041278 467.1432 
L 375.922809 467.1432 
L 375.922809 351.6696 
L 263.041278 351.6696 
z
" style="fill:#1f77b4;"/>
   </g>
   <g id="patch_36">
    <path clip-path="url(#pb7b7108758)" d="M 263.041278 467.1432 
L 375.922809 467.1432 
L 375.922809 372.83976 
L 263.041278 372.83976 
z
" style="fill:#1f77b4;"/>
   </g>
   <g id="patch_37">
    <path clip-path="url(#pb7b7108758)" d="M 263.041278 467.1432 
L 375.922809 467.1432 
L 375.922809 341.276976 
L 263.041278 341.276976 
z
" style="fill:#1f77b4;"/>
   </g>
   <g id="patch_38">
    <path clip-path="url(#pb7b7108758)" d="M 263.041278 467.1432 
L 375.922809 467.1432 
L 375.922809 328.57488 
L 263.041278 328.57488 
z
" style="fill:#1f77b4;"/>
   </g>
   <g id="patch_39">
    <path clip-path="url(#pb7b7108758)" d="M 263.041278 467.1432 
L 375.922809 467.1432 
L 375.922809 390.1608 
L 263.041278 390.1608 
z
" style="fill:#1f77b4;"/>
   </g>
   <g id="patch_40">
    <path clip-path="url(#pb7b7108758)" d="M 263.041278 467.1432 
L 375.922809 467.1432 
L 375.922809 348.975216 
L 263.041278 348.975216 
z
" style="fill:#1f77b4;"/>
   </g>
   <g id="patch_41">
    <path clip-path="url(#pb7b7108758)" d="M 263.041278 467.1432 
L 375.922809 467.1432 
L 375.922809 378.228528 
L 263.041278 378.228528 
z
" style="fill:#1f77b4;"/>
   </g>
   <g id="patch_42">
    <path clip-path="url(#pb7b7108758)" d="M 263.041278 467.1432 
L 375.922809 467.1432 
L 375.922809 274.6872 
L 263.041278 274.6872 
z
" style="fill:#1f77b4;"/>
   </g>
   <g id="patch_43">
    <path clip-path="url(#pb7b7108758)" d="M 263.041278 467.1432 
L 375.922809 467.1432 
L 375.922809 380.922912 
L 263.041278 380.922912 
z
" style="fill:#1f77b4;"/>
   </g>
   <g id="patch_44">
    <path clip-path="url(#pb7b7108758)" d="M 121.939364 467.1432 
L 234.820895 467.1432 
L 234.820895 369.375552 
L 121.939364 369.375552 
z
" style="fill:#1f77b4;"/>
   </g>
   <g id="patch_45">
    <path clip-path="url(#pb7b7108758)" d="M 121.939364 467.1432 
L 234.820895 467.1432 
L 234.820895 349.360128 
L 121.939364 349.360128 
z
" style="fill:#1f77b4;"/>
   </g>
   <g id="patch_46">
    <path clip-path="url(#pb7b7108758)" d="M 121.939364 467.1432 
L 234.820895 467.1432 
L 234.820895 416.334816 
L 121.939364 416.334816 
z
" style="fill:#1f77b4;"/>
   </g>
   <g id="patch_47">
    <path clip-path="url(#pb7b7108758)" d="M 121.939364 467.1432 
L 234.820895 467.1432 
L 234.820895 251.59248 
L 121.939364 251.59248 
z
" style="fill:#1f77b4;"/>
   </g>
   <g id="patch_48">
    <path clip-path="url(#pb7b7108758)" d="M 121.939364 467.1432 
L 234.820895 467.1432 
L 234.820895 351.6696 
L 121.939364 351.6696 
z
" style="fill:#1f77b4;"/>
   </g>
   <g id="patch_49">
    <path clip-path="url(#pb7b7108758)" d="M 121.939364 467.1432 
L 234.820895 467.1432 
L 234.820895 274.6872 
L 121.939364 274.6872 
z
" style="fill:#1f77b4;"/>
   </g>
   <g id="patch_50">
    <path clip-path="url(#pb7b7108758)" d="M 121.939364 467.1432 
L 234.820895 467.1432 
L 234.820895 236.196 
L 121.939364 236.196 
z
" style="fill:#1f77b4;"/>
   </g>
   <g id="patch_51">
    <path clip-path="url(#pb7b7108758)" d="M 121.939364 467.1432 
L 234.820895 467.1432 
L 234.820895 388.23624 
L 121.939364 388.23624 
z
" style="fill:#1f77b4;"/>
   </g>
   <g id="patch_52">
    <path clip-path="url(#pb7b7108758)" d="M 121.939364 467.1432 
L 234.820895 467.1432 
L 234.820895 351.6696 
L 121.939364 351.6696 
z
" style="fill:#1f77b4;"/>
   </g>
   <g id="patch_53">
    <path clip-path="url(#pb7b7108758)" d="M 121.939364 467.1432 
L 234.820895 467.1432 
L 234.820895 370.9152 
L 121.939364 370.9152 
z
" style="fill:#1f77b4;"/>
   </g>
   <g id="patch_54">
    <path clip-path="url(#pb7b7108758)" d="M 121.939364 467.1432 
L 234.820895 467.1432 
L 234.820895 367.06608 
L 121.939364 367.06608 
z
" style="fill:#1f77b4;"/>
   </g>
   <g id="patch_55">
    <path clip-path="url(#pb7b7108758)" d="M 121.939364 467.1432 
L 234.820895 467.1432 
L 234.820895 266.98896 
L 121.939364 266.98896 
z
" style="fill:#1f77b4;"/>
   </g>
   <g id="patch_56">
    <path clip-path="url(#pb7b7108758)" d="M 121.939364 467.1432 
L 234.820895 467.1432 
L 234.820895 407.096928 
L 121.939364 407.096928 
z
" style="fill:#1f77b4;"/>
   </g>
   <g id="patch_57">
    <path clip-path="url(#pb7b7108758)" d="M 121.939364 467.1432 
L 234.820895 467.1432 
L 234.820895 300.091392 
L 121.939364 300.091392 
z
" style="fill:#1f77b4;"/>
   </g>
   <g id="patch_58">
    <path clip-path="url(#pb7b7108758)" d="M 121.939364 467.1432 
L 234.820895 467.1432 
L 234.820895 332.039088 
L 121.939364 332.039088 
z
" style="fill:#1f77b4;"/>
   </g>
   <g id="patch_59">
    <path clip-path="url(#pb7b7108758)" d="M 263.041278 467.1432 
L 375.922809 467.1432 
L 375.922809 351.6696 
L 263.041278 351.6696 
z
" style="fill:#1f77b4;"/>
   </g>
   <g id="patch_60">
    <path clip-path="url(#pb7b7108758)" d="M 263.041278 467.1432 
L 375.922809 467.1432 
L 375.922809 409.4064 
L 263.041278 409.4064 
z
" style="fill:#1f77b4;"/>
   </g>
   <g id="patch_61">
    <path clip-path="url(#pb7b7108758)" d="M 263.041278 467.1432 
L 375.922809 467.1432 
L 375.922809 399.398688 
L 263.041278 399.398688 
z
" style="fill:#1f77b4;"/>
   </g>
   <g id="patch_62">
    <path clip-path="url(#pb7b7108758)" d="M 263.041278 467.1432 
L 375.922809 467.1432 
L 375.922809 208.097424 
L 263.041278 208.097424 
z
" style="fill:#1f77b4;"/>
   </g>
   <g id="patch_63">
    <path clip-path="url(#pb7b7108758)" d="M 263.041278 467.1432 
L 375.922809 467.1432 
L 375.922809 343.586448 
L 263.041278 343.586448 
z
" style="fill:#1f77b4;"/>
   </g>
   <g id="patch_64">
    <path clip-path="url(#pb7b7108758)" d="M 263.041278 467.1432 
L 375.922809 467.1432 
L 375.922809 390.1608 
L 263.041278 390.1608 
z
" style="fill:#1f77b4;"/>
   </g>
   <g id="patch_65">
    <path clip-path="url(#pb7b7108758)" d="M 263.041278 467.1432 
L 375.922809 467.1432 
L 375.922809 390.930624 
L 263.041278 390.930624 
z
" style="fill:#1f77b4;"/>
   </g>
   <g id="patch_66">
    <path clip-path="url(#pb7b7108758)" d="M 263.041278 467.1432 
L 375.922809 467.1432 
L 375.922809 322.416288 
L 263.041278 322.416288 
z
" style="fill:#1f77b4;"/>
   </g>
   <g id="patch_67">
    <path clip-path="url(#pb7b7108758)" d="M 263.041278 467.1432 
L 375.922809 467.1432 
L 375.922809 365.526432 
L 263.041278 365.526432 
z
" style="fill:#1f77b4;"/>
   </g>
   <g id="patch_68">
    <path clip-path="url(#pb7b7108758)" d="M 263.041278 467.1432 
L 375.922809 467.1432 
L 375.922809 345.89592 
L 263.041278 345.89592 
z
" style="fill:#1f77b4;"/>
   </g>
   <g id="patch_69">
    <path clip-path="url(#pb7b7108758)" d="M 263.041278 467.1432 
L 375.922809 467.1432 
L 375.922809 372.069936 
L 263.041278 372.069936 
z
" style="fill:#1f77b4;"/>
   </g>
   <g id="patch_70">
    <path clip-path="url(#pb7b7108758)" d="M 263.041278 467.1432 
L 375.922809 467.1432 
L 375.922809 428.652 
L 263.041278 428.652 
z
" style="fill:#1f77b4;"/>
   </g>
   <g id="patch_71">
    <path clip-path="url(#pb7b7108758)" d="M 263.041278 467.1432 
L 375.922809 467.1432 
L 375.922809 389.775888 
L 263.041278 389.775888 
z
" style="fill:#1f77b4;"/>
   </g>
   <g id="patch_72">
    <path clip-path="url(#pb7b7108758)" d="M 263.041278 467.1432 
L 375.922809 467.1432 
L 375.922809 386.696592 
L 263.041278 386.696592 
z
" style="fill:#1f77b4;"/>
   </g>
   <g id="patch_73">
    <path clip-path="url(#pb7b7108758)" d="M 263.041278 467.1432 
L 375.922809 467.1432 
L 375.922809 391.315536 
L 263.041278 391.315536 
z
" style="fill:#1f77b4;"/>
   </g>
   <g id="patch_74">
    <path clip-path="url(#pb7b7108758)" d="M 263.041278 467.1432 
L 375.922809 467.1432 
L 375.922809 351.6696 
L 263.041278 351.6696 
z
" style="fill:#1f77b4;"/>
   </g>
   <g id="patch_75">
    <path clip-path="url(#pb7b7108758)" d="M 263.041278 467.1432 
L 375.922809 467.1432 
L 375.922809 346.280832 
L 263.041278 346.280832 
z
" style="fill:#1f77b4;"/>
   </g>
   <g id="patch_76">
    <path clip-path="url(#pb7b7108758)" d="M 263.041278 467.1432 
L 375.922809 467.1432 
L 375.922809 274.6872 
L 263.041278 274.6872 
z
" style="fill:#1f77b4;"/>
   </g>
   <g id="patch_77">
    <path clip-path="url(#pb7b7108758)" d="M 263.041278 467.1432 
L 375.922809 467.1432 
L 375.922809 382.46256 
L 263.041278 382.46256 
z
" style="fill:#1f77b4;"/>
   </g>
   <g id="patch_78">
    <path clip-path="url(#pb7b7108758)" d="M 263.041278 467.1432 
L 375.922809 467.1432 
L 375.922809 419.0292 
L 263.041278 419.0292 
z
" style="fill:#1f77b4;"/>
   </g>
   <g id="patch_79">
    <path clip-path="url(#pb7b7108758)" d="M 263.041278 467.1432 
L 375.922809 467.1432 
L 375.922809 348.590304 
L 263.041278 348.590304 
z
" style="fill:#1f77b4;"/>
   </g>
   <g id="patch_80">
    <path clip-path="url(#pb7b7108758)" d="M 404.143191 467.1432 
L 517.024722 467.1432 
L 517.024722 313.1784 
L 404.143191 313.1784 
z
" style="fill:#1f77b4;"/>
   </g>
   <g id="patch_81">
    <path clip-path="url(#pb7b7108758)" d="M 404.143191 467.1432 
L 517.024722 467.1432 
L 517.024722 351.6696 
L 404.143191 351.6696 
z
" style="fill:#1f77b4;"/>
   </g>
   <g id="patch_82">
    <path clip-path="url(#pb7b7108758)" d="M 404.143191 467.1432 
L 517.024722 467.1432 
L 517.024722 362.832048 
L 404.143191 362.832048 
z
" style="fill:#1f77b4;"/>
   </g>
   <g id="patch_83">
    <path clip-path="url(#pb7b7108758)" d="M 404.143191 467.1432 
L 517.024722 467.1432 
L 517.024722 351.6696 
L 404.143191 351.6696 
z
" style="fill:#1f77b4;"/>
   </g>
   <g id="patch_84">
    <path clip-path="url(#pb7b7108758)" d="M 404.143191 467.1432 
L 517.024722 467.1432 
L 517.024722 336.27312 
L 404.143191 336.27312 
z
" style="fill:#1f77b4;"/>
   </g>
   <g id="patch_85">
    <path clip-path="url(#pb7b7108758)" d="M 404.143191 467.1432 
L 517.024722 467.1432 
L 517.024722 396.704304 
L 404.143191 396.704304 
z
" style="fill:#1f77b4;"/>
   </g>
   <g id="patch_86">
    <path clip-path="url(#pb7b7108758)" d="M 404.143191 467.1432 
L 517.024722 467.1432 
L 517.024722 274.6872 
L 404.143191 274.6872 
z
" style="fill:#1f77b4;"/>
   </g>
   <g id="patch_87">
    <path clip-path="url(#pb7b7108758)" d="M 404.143191 467.1432 
L 517.024722 467.1432 
L 517.024722 389.006064 
L 404.143191 389.006064 
z
" style="fill:#1f77b4;"/>
   </g>
   <g id="patch_88">
    <path clip-path="url(#pb7b7108758)" d="M 404.143191 467.1432 
L 517.024722 467.1432 
L 517.024722 268.143696 
L 404.143191 268.143696 
z
" style="fill:#1f77b4;"/>
   </g>
   <g id="patch_89">
    <path clip-path="url(#pb7b7108758)" d="M 404.143191 467.1432 
L 517.024722 467.1432 
L 517.024722 390.1608 
L 404.143191 390.1608 
z
" style="fill:#1f77b4;"/>
   </g>
   <g id="patch_90">
    <path clip-path="url(#pb7b7108758)" d="M 404.143191 467.1432 
L 517.024722 467.1432 
L 517.024722 313.1784 
L 404.143191 313.1784 
z
" style="fill:#1f77b4;"/>
   </g>
   <g id="patch_91">
    <path clip-path="url(#pb7b7108758)" d="M 404.143191 467.1432 
L 517.024722 467.1432 
L 517.024722 241.96968 
L 404.143191 241.96968 
z
" style="fill:#1f77b4;"/>
   </g>
   <g id="patch_92">
    <path clip-path="url(#pb7b7108758)" d="M 404.143191 467.1432 
L 517.024722 467.1432 
L 517.024722 351.6696 
L 404.143191 351.6696 
z
" style="fill:#1f77b4;"/>
   </g>
   <g id="patch_93">
    <path clip-path="url(#pb7b7108758)" d="M 545.245105 467.1432 
L 658.126636 467.1432 
L 658.126636 351.6696 
L 545.245105 351.6696 
z
" style="fill:#1f77b4;"/>
   </g>
   <g id="patch_94">
    <path clip-path="url(#pb7b7108758)" d="M 545.245105 467.1432 
L 658.126636 467.1432 
L 658.126636 332.424 
L 545.245105 332.424 
z
" style="fill:#1f77b4;"/>
   </g>
   <g id="patch_95">
    <path clip-path="url(#pb7b7108758)" d="M 545.245105 467.1432 
L 658.126636 467.1432 
L 658.126636 428.652 
L 545.245105 428.652 
z
" style="fill:#1f77b4;"/>
   </g>
   <g id="patch_96">
    <path clip-path="url(#pb7b7108758)" d="M 545.245105 467.1432 
L 658.126636 467.1432 
L 658.126636 301.63104 
L 545.245105 301.63104 
z
" style="fill:#1f77b4;"/>
   </g>
   <g id="patch_97">
    <path clip-path="url(#pb7b7108758)" d="M 545.245105 467.1432 
L 658.126636 467.1432 
L 658.126636 342.0468 
L 545.245105 342.0468 
z
" style="fill:#1f77b4;"/>
   </g>
   <g id="patch_98">
    <path clip-path="url(#pb7b7108758)" d="M 545.245105 467.1432 
L 658.126636 467.1432 
L 658.126636 285.079824 
L 545.245105 285.079824 
z
" style="fill:#1f77b4;"/>
   </g>
   <g id="patch_99">
    <path clip-path="url(#pb7b7108758)" d="M 545.245105 467.1432 
L 658.126636 467.1432 
L 658.126636 313.1784 
L 545.245105 313.1784 
z
" style="fill:#1f77b4;"/>
   </g>
   <g id="patch_100">
    <path clip-path="url(#pb7b7108758)" d="M 545.245105 467.1432 
L 658.126636 467.1432 
L 658.126636 409.4064 
L 545.245105 409.4064 
z
" style="fill:#1f77b4;"/>
   </g>
   <g id="patch_101">
    <path clip-path="url(#pb7b7108758)" d="M 545.245105 467.1432 
L 658.126636 467.1432 
L 658.126636 351.6696 
L 545.245105 351.6696 
z
" style="fill:#1f77b4;"/>
   </g>
   <g id="patch_102">
    <path clip-path="url(#pb7b7108758)" d="M 545.245105 467.1432 
L 658.126636 467.1432 
L 658.126636 409.4064 
L 545.245105 409.4064 
z
" style="fill:#1f77b4;"/>
   </g>
   <g id="patch_103">
    <path clip-path="url(#pb7b7108758)" d="M 545.245105 467.1432 
L 658.126636 467.1432 
L 658.126636 370.9152 
L 545.245105 370.9152 
z
" style="fill:#1f77b4;"/>
   </g>
   <g id="patch_104">
    <path clip-path="url(#pb7b7108758)" d="M 545.245105 467.1432 
L 658.126636 467.1432 
L 658.126636 351.6696 
L 545.245105 351.6696 
z
" style="fill:#1f77b4;"/>
   </g>
   <g id="patch_105">
    <path clip-path="url(#pb7b7108758)" d="M 263.041278 467.1432 
L 375.922809 467.1432 
L 375.922809 370.9152 
L 263.041278 370.9152 
z
" style="fill:#1f77b4;"/>
   </g>
   <g id="patch_106">
    <path clip-path="url(#pb7b7108758)" d="M 263.041278 467.1432 
L 375.922809 467.1432 
L 375.922809 333.193824 
L 263.041278 333.193824 
z
" style="fill:#1f77b4;"/>
   </g>
   <g id="patch_107">
    <path clip-path="url(#pb7b7108758)" d="M 263.041278 467.1432 
L 375.922809 467.1432 
L 375.922809 310.099104 
L 263.041278 310.099104 
z
" style="fill:#1f77b4;"/>
   </g>
   <g id="patch_108">
    <path clip-path="url(#pb7b7108758)" d="M 263.041278 467.1432 
L 375.922809 467.1432 
L 375.922809 404.017632 
L 263.041278 404.017632 
z
" style="fill:#1f77b4;"/>
   </g>
   <g id="patch_109">
    <path clip-path="url(#pb7b7108758)" d="M 263.041278 467.1432 
L 375.922809 467.1432 
L 375.922809 310.868928 
L 263.041278 310.868928 
z
" style="fill:#1f77b4;"/>
   </g>
   <g id="patch_110">
    <path clip-path="url(#pb7b7108758)" d="M 263.041278 467.1432 
L 375.922809 467.1432 
L 375.922809 302.015952 
L 263.041278 302.015952 
z
" style="fill:#1f77b4;"/>
   </g>
   <g id="patch_111">
    <path clip-path="url(#pb7b7108758)" d="M 263.041278 467.1432 
L 375.922809 467.1432 
L 375.922809 322.416288 
L 263.041278 322.416288 
z
" style="fill:#1f77b4;"/>
   </g>
   <g id="patch_112">
    <path clip-path="url(#pb7b7108758)" d="M 263.041278 467.1432 
L 375.922809 467.1432 
L 375.922809 313.1784 
L 263.041278 313.1784 
z
" style="fill:#1f77b4;"/>
   </g>
   <g id="patch_113">
    <path clip-path="url(#pb7b7108758)" d="M 263.041278 467.1432 
L 375.922809 467.1432 
L 375.922809 351.6696 
L 263.041278 351.6696 
z
" style="fill:#1f77b4;"/>
   </g>
   <g id="patch_114">
    <path clip-path="url(#pb7b7108758)" d="M 263.041278 467.1432 
L 375.922809 467.1432 
L 375.922809 428.652 
L 263.041278 428.652 
z
" style="fill:#1f77b4;"/>
   </g>
   <g id="patch_115">
    <path clip-path="url(#pb7b7108758)" d="M 121.939364 467.1432 
L 234.820895 467.1432 
L 234.820895 313.1784 
L 121.939364 313.1784 
z
" style="fill:#1f77b4;"/>
   </g>
   <g id="patch_116">
    <path clip-path="url(#pb7b7108758)" d="M 121.939364 467.1432 
L 234.820895 467.1432 
L 234.820895 368.99064 
L 121.939364 368.99064 
z
" style="fill:#1f77b4;"/>
   </g>
   <g id="patch_117">
    <path clip-path="url(#pb7b7108758)" d="M 121.939364 467.1432 
L 234.820895 467.1432 
L 234.820895 313.1784 
L 121.939364 313.1784 
z
" style="fill:#1f77b4;"/>
   </g>
   <g id="patch_118">
    <path clip-path="url(#pb7b7108758)" d="M 121.939364 467.1432 
L 234.820895 467.1432 
L 234.820895 332.424 
L 121.939364 332.424 
z
" style="fill:#1f77b4;"/>
   </g>
   <g id="patch_119">
    <path clip-path="url(#pb7b7108758)" d="M 121.939364 467.1432 
L 234.820895 467.1432 
L 234.820895 271.992816 
L 121.939364 271.992816 
z
" style="fill:#1f77b4;"/>
   </g>
   <g id="patch_120">
    <path clip-path="url(#pb7b7108758)" d="M 404.143191 467.1432 
L 517.024722 467.1432 
L 517.024722 409.4064 
L 404.143191 409.4064 
z
" style="fill:#1f77b4;"/>
   </g>
   <g id="patch_121">
    <path clip-path="url(#pb7b7108758)" d="M 404.143191 467.1432 
L 517.024722 467.1432 
L 517.024722 397.85904 
L 404.143191 397.85904 
z
" style="fill:#1f77b4;"/>
   </g>
   <g id="patch_122">
    <path clip-path="url(#pb7b7108758)" d="M 404.143191 467.1432 
L 517.024722 467.1432 
L 517.024722 354.748896 
L 404.143191 354.748896 
z
" style="fill:#1f77b4;"/>
   </g>
   <g id="patch_123">
    <path clip-path="url(#pb7b7108758)" d="M 404.143191 467.1432 
L 517.024722 467.1432 
L 517.024722 378.228528 
L 404.143191 378.228528 
z
" style="fill:#1f77b4;"/>
   </g>
   <g id="patch_124">
    <path clip-path="url(#pb7b7108758)" d="M 404.143191 467.1432 
L 517.024722 467.1432 
L 517.024722 402.477984 
L 404.143191 402.477984 
z
" style="fill:#1f77b4;"/>
   </g>
   <g id="patch_125">
    <path clip-path="url(#pb7b7108758)" d="M 404.143191 467.1432 
L 517.024722 467.1432 
L 517.024722 370.9152 
L 404.143191 370.9152 
z
" style="fill:#1f77b4;"/>
   </g>
   <g id="patch_126">
    <path clip-path="url(#pb7b7108758)" d="M 404.143191 467.1432 
L 517.024722 467.1432 
L 517.024722 390.1608 
L 404.143191 390.1608 
z
" style="fill:#1f77b4;"/>
   </g>
   <g id="patch_127">
    <path clip-path="url(#pb7b7108758)" d="M 404.143191 467.1432 
L 517.024722 467.1432 
L 517.024722 370.145376 
L 404.143191 370.145376 
z
" style="fill:#1f77b4;"/>
   </g>
   <g id="patch_128">
    <path clip-path="url(#pb7b7108758)" d="M 404.143191 467.1432 
L 517.024722 467.1432 
L 517.024722 305.48016 
L 404.143191 305.48016 
z
" style="fill:#1f77b4;"/>
   </g>
   <g id="patch_129">
    <path clip-path="url(#pb7b7108758)" d="M 404.143191 467.1432 
L 517.024722 467.1432 
L 517.024722 410.176224 
L 404.143191 410.176224 
z
" style="fill:#1f77b4;"/>
   </g>
   <g id="patch_130">
    <path clip-path="url(#pb7b7108758)" d="M 404.143191 467.1432 
L 517.024722 467.1432 
L 517.024722 390.1608 
L 404.143191 390.1608 
z
" style="fill:#1f77b4;"/>
   </g>
   <g id="patch_131">
    <path clip-path="url(#pb7b7108758)" d="M 404.143191 467.1432 
L 517.024722 467.1432 
L 517.024722 390.1608 
L 404.143191 390.1608 
z
" style="fill:#1f77b4;"/>
   </g>
   <g id="patch_132">
    <path clip-path="url(#pb7b7108758)" d="M 404.143191 467.1432 
L 517.024722 467.1432 
L 517.024722 383.232384 
L 404.143191 383.232384 
z
" style="fill:#1f77b4;"/>
   </g>
   <g id="patch_133">
    <path clip-path="url(#pb7b7108758)" d="M 404.143191 467.1432 
L 517.024722 467.1432 
L 517.024722 409.4064 
L 404.143191 409.4064 
z
" style="fill:#1f77b4;"/>
   </g>
   <g id="patch_134">
    <path clip-path="url(#pb7b7108758)" d="M 404.143191 467.1432 
L 517.024722 467.1432 
L 517.024722 358.213104 
L 404.143191 358.213104 
z
" style="fill:#1f77b4;"/>
   </g>
   <g id="patch_135">
    <path clip-path="url(#pb7b7108758)" d="M 404.143191 467.1432 
L 517.024722 467.1432 
L 517.024722 409.4064 
L 404.143191 409.4064 
z
" style="fill:#1f77b4;"/>
   </g>
   <g id="patch_136">
    <path clip-path="url(#pb7b7108758)" d="M 404.143191 467.1432 
L 517.024722 467.1432 
L 517.024722 390.1608 
L 404.143191 390.1608 
z
" style="fill:#1f77b4;"/>
   </g>
   <g id="patch_137">
    <path clip-path="url(#pb7b7108758)" d="M 404.143191 467.1432 
L 517.024722 467.1432 
L 517.024722 342.0468 
L 404.143191 342.0468 
z
" style="fill:#1f77b4;"/>
   </g>
   <g id="patch_138">
    <path clip-path="url(#pb7b7108758)" d="M 404.143191 467.1432 
L 517.024722 467.1432 
L 517.024722 419.0292 
L 404.143191 419.0292 
z
" style="fill:#1f77b4;"/>
   </g>
   <g id="patch_139">
    <path clip-path="url(#pb7b7108758)" d="M 404.143191 467.1432 
L 517.024722 467.1432 
L 517.024722 390.1608 
L 404.143191 390.1608 
z
" style="fill:#1f77b4;"/>
   </g>
   <g id="patch_140">
    <path clip-path="url(#pb7b7108758)" d="M 404.143191 467.1432 
L 517.024722 467.1432 
L 517.024722 390.1608 
L 404.143191 390.1608 
z
" style="fill:#1f77b4;"/>
   </g>
   <g id="patch_141">
    <path clip-path="url(#pb7b7108758)" d="M 404.143191 467.1432 
L 517.024722 467.1432 
L 517.024722 390.1608 
L 404.143191 390.1608 
z
" style="fill:#1f77b4;"/>
   </g>
   <g id="patch_142">
    <path clip-path="url(#pb7b7108758)" d="M 404.143191 467.1432 
L 517.024722 467.1432 
L 517.024722 361.2924 
L 404.143191 361.2924 
z
" style="fill:#1f77b4;"/>
   </g>
   <g id="patch_143">
    <path clip-path="url(#pb7b7108758)" d="M 404.143191 467.1432 
L 517.024722 467.1432 
L 517.024722 332.424 
L 404.143191 332.424 
z
" style="fill:#1f77b4;"/>
   </g>
   <g id="patch_144">
    <path clip-path="url(#pb7b7108758)" d="M 404.143191 467.1432 
L 517.024722 467.1432 
L 517.024722 209.25216 
L 404.143191 209.25216 
z
" style="fill:#1f77b4;"/>
   </g>
   <g id="patch_145">
    <path clip-path="url(#pb7b7108758)" d="M 404.143191 467.1432 
L 517.024722 467.1432 
L 517.024722 274.6872 
L 404.143191 274.6872 
z
" style="fill:#1f77b4;"/>
   </g>
   <g id="patch_146">
    <path clip-path="url(#pb7b7108758)" d="M 404.143191 467.1432 
L 517.024722 467.1432 
L 517.024722 274.6872 
L 404.143191 274.6872 
z
" style="fill:#1f77b4;"/>
   </g>
   <g id="patch_147">
    <path clip-path="url(#pb7b7108758)" d="M 404.143191 467.1432 
L 517.024722 467.1432 
L 517.024722 378.61344 
L 404.143191 378.61344 
z
" style="fill:#1f77b4;"/>
   </g>
   <g id="patch_148">
    <path clip-path="url(#pb7b7108758)" d="M 404.143191 467.1432 
L 517.024722 467.1432 
L 517.024722 409.4064 
L 404.143191 409.4064 
z
" style="fill:#1f77b4;"/>
   </g>
   <g id="patch_149">
    <path clip-path="url(#pb7b7108758)" d="M 404.143191 467.1432 
L 517.024722 467.1432 
L 517.024722 414.795168 
L 404.143191 414.795168 
z
" style="fill:#1f77b4;"/>
   </g>
   <g id="patch_150">
    <path clip-path="url(#pb7b7108758)" d="M 404.143191 467.1432 
L 517.024722 467.1432 
L 517.024722 404.402544 
L 404.143191 404.402544 
z
" style="fill:#1f77b4;"/>
   </g>
   <g id="patch_151">
    <path clip-path="url(#pb7b7108758)" d="M 404.143191 467.1432 
L 517.024722 467.1432 
L 517.024722 400.553424 
L 404.143191 400.553424 
z
" style="fill:#1f77b4;"/>
   </g>
   <g id="patch_152">
    <path clip-path="url(#pb7b7108758)" d="M 404.143191 467.1432 
L 517.024722 467.1432 
L 517.024722 390.1608 
L 404.143191 390.1608 
z
" style="fill:#1f77b4;"/>
   </g>
   <g id="patch_153">
    <path clip-path="url(#pb7b7108758)" d="M 121.939364 467.1432 
L 234.820895 467.1432 
L 234.820895 370.9152 
L 121.939364 370.9152 
z
" style="fill:#1f77b4;"/>
   </g>
   <g id="patch_154">
    <path clip-path="url(#pb7b7108758)" d="M 121.939364 467.1432 
L 234.820895 467.1432 
L 234.820895 390.1608 
L 121.939364 390.1608 
z
" style="fill:#1f77b4;"/>
   </g>
   <g id="patch_155">
    <path clip-path="url(#pb7b7108758)" d="M 121.939364 467.1432 
L 234.820895 467.1432 
L 234.820895 361.677312 
L 121.939364 361.677312 
z
" style="fill:#1f77b4;"/>
   </g>
   <g id="patch_156">
    <path clip-path="url(#pb7b7108758)" d="M 121.939364 467.1432 
L 234.820895 467.1432 
L 234.820895 390.1608 
L 121.939364 390.1608 
z
" style="fill:#1f77b4;"/>
   </g>
   <g id="patch_157">
    <path clip-path="url(#pb7b7108758)" d="M 121.939364 467.1432 
L 234.820895 467.1432 
L 234.820895 390.1608 
L 121.939364 390.1608 
z
" style="fill:#1f77b4;"/>
   </g>
   <g id="patch_158">
    <path clip-path="url(#pb7b7108758)" d="M 121.939364 467.1432 
L 234.820895 467.1432 
L 234.820895 269.298432 
L 121.939364 269.298432 
z
" style="fill:#1f77b4;"/>
   </g>
   <g id="patch_159">
    <path clip-path="url(#pb7b7108758)" d="M 121.939364 467.1432 
L 234.820895 467.1432 
L 234.820895 274.6872 
L 121.939364 274.6872 
z
" style="fill:#1f77b4;"/>
   </g>
   <g id="patch_160">
    <path clip-path="url(#pb7b7108758)" d="M 121.939364 467.1432 
L 234.820895 467.1432 
L 234.820895 322.8012 
L 121.939364 322.8012 
z
" style="fill:#1f77b4;"/>
   </g>
   <g id="patch_161">
    <path clip-path="url(#pb7b7108758)" d="M 121.939364 467.1432 
L 234.820895 467.1432 
L 234.820895 366.681168 
L 121.939364 366.681168 
z
" style="fill:#1f77b4;"/>
   </g>
   <g id="patch_162">
    <path clip-path="url(#pb7b7108758)" d="M 121.939364 467.1432 
L 234.820895 467.1432 
L 234.820895 390.1608 
L 121.939364 390.1608 
z
" style="fill:#1f77b4;"/>
   </g>
   <g id="patch_163">
    <path clip-path="url(#pb7b7108758)" d="M 121.939364 467.1432 
L 234.820895 467.1432 
L 234.820895 332.424 
L 121.939364 332.424 
z
" style="fill:#1f77b4;"/>
   </g>
   <g id="patch_164">
    <path clip-path="url(#pb7b7108758)" d="M 121.939364 467.1432 
L 234.820895 467.1432 
L 234.820895 370.9152 
L 121.939364 370.9152 
z
" style="fill:#1f77b4;"/>
   </g>
   <g id="patch_165">
    <path clip-path="url(#pb7b7108758)" d="M 121.939364 467.1432 
L 234.820895 467.1432 
L 234.820895 390.1608 
L 121.939364 390.1608 
z
" style="fill:#1f77b4;"/>
   </g>
   <g id="patch_166">
    <path clip-path="url(#pb7b7108758)" d="M 121.939364 467.1432 
L 234.820895 467.1432 
L 234.820895 390.1608 
L 121.939364 390.1608 
z
" style="fill:#1f77b4;"/>
   </g>
   <g id="patch_167">
    <path clip-path="url(#pb7b7108758)" d="M 121.939364 467.1432 
L 234.820895 467.1432 
L 234.820895 351.6696 
L 121.939364 351.6696 
z
" style="fill:#1f77b4;"/>
   </g>
   <g id="patch_168">
    <path clip-path="url(#pb7b7108758)" d="M 121.939364 467.1432 
L 234.820895 467.1432 
L 234.820895 333.193824 
L 121.939364 333.193824 
z
" style="fill:#1f77b4;"/>
   </g>
   <g id="patch_169">
    <path clip-path="url(#pb7b7108758)" d="M 121.939364 467.1432 
L 234.820895 467.1432 
L 234.820895 380.922912 
L 121.939364 380.922912 
z
" style="fill:#1f77b4;"/>
   </g>
   <g id="patch_170">
    <path clip-path="url(#pb7b7108758)" d="M 121.939364 467.1432 
L 234.820895 467.1432 
L 234.820895 293.9328 
L 121.939364 293.9328 
z
" style="fill:#1f77b4;"/>
   </g>
   <g id="patch_171">
    <path clip-path="url(#pb7b7108758)" d="M 263.041278 467.1432 
L 375.922809 467.1432 
L 375.922809 405.172368 
L 263.041278 405.172368 
z
" style="fill:#1f77b4;"/>
   </g>
   <g id="patch_172">
    <path clip-path="url(#pb7b7108758)" d="M 263.041278 467.1432 
L 375.922809 467.1432 
L 375.922809 390.1608 
L 263.041278 390.1608 
z
" style="fill:#1f77b4;"/>
   </g>
   <g id="patch_173">
    <path clip-path="url(#pb7b7108758)" d="M 263.041278 467.1432 
L 375.922809 467.1432 
L 375.922809 82.2312 
L 263.041278 82.2312 
z
" style="fill:#1f77b4;"/>
   </g>
   <g id="patch_174">
    <path clip-path="url(#pb7b7108758)" d="M 263.041278 467.1432 
L 375.922809 467.1432 
L 375.922809 345.511008 
L 263.041278 345.511008 
z
" style="fill:#1f77b4;"/>
   </g>
   <g id="patch_175">
    <path clip-path="url(#pb7b7108758)" d="M 121.939364 467.1432 
L 234.820895 467.1432 
L 234.820895 268.91352 
L 121.939364 268.91352 
z
" style="fill:#1f77b4;"/>
   </g>
   <g id="patch_176">
    <path clip-path="url(#pb7b7108758)" d="M 121.939364 467.1432 
L 234.820895 467.1432 
L 234.820895 344.741184 
L 121.939364 344.741184 
z
" style="fill:#1f77b4;"/>
   </g>
   <g id="patch_177">
    <path clip-path="url(#pb7b7108758)" d="M 121.939364 467.1432 
L 234.820895 467.1432 
L 234.820895 313.1784 
L 121.939364 313.1784 
z
" style="fill:#1f77b4;"/>
   </g>
   <g id="patch_178">
    <path clip-path="url(#pb7b7108758)" d="M 121.939364 467.1432 
L 234.820895 467.1432 
L 234.820895 347.435568 
L 121.939364 347.435568 
z
" style="fill:#1f77b4;"/>
   </g>
   <g id="patch_179">
    <path clip-path="url(#pb7b7108758)" d="M 121.939364 467.1432 
L 234.820895 467.1432 
L 234.820895 390.1608 
L 121.939364 390.1608 
z
" style="fill:#1f77b4;"/>
   </g>
   <g id="patch_180">
    <path clip-path="url(#pb7b7108758)" d="M 121.939364 467.1432 
L 234.820895 467.1432 
L 234.820895 390.1608 
L 121.939364 390.1608 
z
" style="fill:#1f77b4;"/>
   </g>
   <g id="patch_181">
    <path clip-path="url(#pb7b7108758)" d="M 121.939364 467.1432 
L 234.820895 467.1432 
L 234.820895 313.1784 
L 121.939364 313.1784 
z
" style="fill:#1f77b4;"/>
   </g>
   <g id="patch_182">
    <path clip-path="url(#pb7b7108758)" d="M 121.939364 467.1432 
L 234.820895 467.1432 
L 234.820895 330.49944 
L 121.939364 330.49944 
z
" style="fill:#1f77b4;"/>
   </g>
   <g id="patch_183">
    <path clip-path="url(#pb7b7108758)" d="M 121.939364 467.1432 
L 234.820895 467.1432 
L 234.820895 325.495584 
L 121.939364 325.495584 
z
" style="fill:#1f77b4;"/>
   </g>
   <g id="patch_184">
    <path clip-path="url(#pb7b7108758)" d="M 121.939364 467.1432 
L 234.820895 467.1432 
L 234.820895 249.66792 
L 121.939364 249.66792 
z
" style="fill:#1f77b4;"/>
   </g>
   <g id="patch_185">
    <path clip-path="url(#pb7b7108758)" d="M 121.939364 467.1432 
L 234.820895 467.1432 
L 234.820895 332.424 
L 121.939364 332.424 
z
" style="fill:#1f77b4;"/>
   </g>
   <g id="patch_186">
    <path clip-path="url(#pb7b7108758)" d="M 121.939364 467.1432 
L 234.820895 467.1432 
L 234.820895 216.9504 
L 121.939364 216.9504 
z
" style="fill:#1f77b4;"/>
   </g>
   <g id="patch_187">
    <path clip-path="url(#pb7b7108758)" d="M 121.939364 467.1432 
L 234.820895 467.1432 
L 234.820895 351.6696 
L 121.939364 351.6696 
z
" style="fill:#1f77b4;"/>
   </g>
   <g id="patch_188">
    <path clip-path="url(#pb7b7108758)" d="M 121.939364 467.1432 
L 234.820895 467.1432 
L 234.820895 274.6872 
L 121.939364 274.6872 
z
" style="fill:#1f77b4;"/>
   </g>
   <g id="patch_189">
    <path clip-path="url(#pb7b7108758)" d="M 121.939364 467.1432 
L 234.820895 467.1432 
L 234.820895 332.424 
L 121.939364 332.424 
z
" style="fill:#1f77b4;"/>
   </g>
   <g id="patch_190">
    <path clip-path="url(#pb7b7108758)" d="M 121.939364 467.1432 
L 234.820895 467.1432 
L 234.820895 390.1608 
L 121.939364 390.1608 
z
" style="fill:#1f77b4;"/>
   </g>
   <g id="patch_191">
    <path clip-path="url(#pb7b7108758)" d="M 121.939364 467.1432 
L 234.820895 467.1432 
L 234.820895 332.424 
L 121.939364 332.424 
z
" style="fill:#1f77b4;"/>
   </g>
   <g id="patch_192">
    <path clip-path="url(#pb7b7108758)" d="M 121.939364 467.1432 
L 234.820895 467.1432 
L 234.820895 313.1784 
L 121.939364 313.1784 
z
" style="fill:#1f77b4;"/>
   </g>
   <g id="patch_193">
    <path clip-path="url(#pb7b7108758)" d="M 121.939364 467.1432 
L 234.820895 467.1432 
L 234.820895 409.4064 
L 121.939364 409.4064 
z
" style="fill:#1f77b4;"/>
   </g>
   <g id="patch_194">
    <path clip-path="url(#pb7b7108758)" d="M 404.143191 467.1432 
L 517.024722 467.1432 
L 517.024722 305.865072 
L 404.143191 305.865072 
z
" style="fill:#1f77b4;"/>
   </g>
   <g id="patch_195">
    <path clip-path="url(#pb7b7108758)" d="M 404.143191 467.1432 
L 517.024722 467.1432 
L 517.024722 368.605728 
L 404.143191 368.605728 
z
" style="fill:#1f77b4;"/>
   </g>
   <g id="patch_196">
    <path clip-path="url(#pb7b7108758)" d="M 404.143191 467.1432 
L 517.024722 467.1432 
L 517.024722 389.390976 
L 404.143191 389.390976 
z
" style="fill:#1f77b4;"/>
   </g>
   <g id="patch_197">
    <path clip-path="url(#pb7b7108758)" d="M 404.143191 467.1432 
L 517.024722 467.1432 
L 517.024722 313.1784 
L 404.143191 313.1784 
z
" style="fill:#1f77b4;"/>
   </g>
   <g id="patch_198">
    <path clip-path="url(#pb7b7108758)" d="M 404.143191 467.1432 
L 517.024722 467.1432 
L 517.024722 411.715872 
L 404.143191 411.715872 
z
" style="fill:#1f77b4;"/>
   </g>
   <g id="patch_199">
    <path clip-path="url(#pb7b7108758)" d="M 404.143191 467.1432 
L 517.024722 467.1432 
L 517.024722 390.1608 
L 404.143191 390.1608 
z
" style="fill:#1f77b4;"/>
   </g>
   <g id="patch_200">
    <path clip-path="url(#pb7b7108758)" d="M 404.143191 467.1432 
L 517.024722 467.1432 
L 517.024722 274.6872 
L 404.143191 274.6872 
z
" style="fill:#1f77b4;"/>
   </g>
   <g id="patch_201">
    <path clip-path="url(#pb7b7108758)" d="M 404.143191 467.1432 
L 517.024722 467.1432 
L 517.024722 390.1608 
L 404.143191 390.1608 
z
" style="fill:#1f77b4;"/>
   </g>
   <g id="patch_202">
    <path clip-path="url(#pb7b7108758)" d="M 404.143191 467.1432 
L 517.024722 467.1432 
L 517.024722 390.1608 
L 404.143191 390.1608 
z
" style="fill:#1f77b4;"/>
   </g>
   <g id="patch_203">
    <path clip-path="url(#pb7b7108758)" d="M 404.143191 467.1432 
L 517.024722 467.1432 
L 517.024722 313.1784 
L 404.143191 313.1784 
z
" style="fill:#1f77b4;"/>
   </g>
   <g id="patch_204">
    <path clip-path="url(#pb7b7108758)" d="M 404.143191 467.1432 
L 517.024722 467.1432 
L 517.024722 389.775888 
L 404.143191 389.775888 
z
" style="fill:#1f77b4;"/>
   </g>
   <g id="patch_205">
    <path clip-path="url(#pb7b7108758)" d="M 404.143191 467.1432 
L 517.024722 467.1432 
L 517.024722 390.1608 
L 404.143191 390.1608 
z
" style="fill:#1f77b4;"/>
   </g>
   <g id="patch_206">
    <path clip-path="url(#pb7b7108758)" d="M 404.143191 467.1432 
L 517.024722 467.1432 
L 517.024722 370.9152 
L 404.143191 370.9152 
z
" style="fill:#1f77b4;"/>
   </g>
   <g id="patch_207">
    <path clip-path="url(#pb7b7108758)" d="M 404.143191 467.1432 
L 517.024722 467.1432 
L 517.024722 313.1784 
L 404.143191 313.1784 
z
" style="fill:#1f77b4;"/>
   </g>
   <g id="patch_208">
    <path clip-path="url(#pb7b7108758)" d="M 404.143191 467.1432 
L 517.024722 467.1432 
L 517.024722 342.816624 
L 404.143191 342.816624 
z
" style="fill:#1f77b4;"/>
   </g>
   <g id="patch_209">
    <path clip-path="url(#pb7b7108758)" d="M 263.041278 467.1432 
L 375.922809 467.1432 
L 375.922809 335.888208 
L 263.041278 335.888208 
z
" style="fill:#1f77b4;"/>
   </g>
   <g id="patch_210">
    <path clip-path="url(#pb7b7108758)" d="M 263.041278 467.1432 
L 375.922809 467.1432 
L 375.922809 351.6696 
L 263.041278 351.6696 
z
" style="fill:#1f77b4;"/>
   </g>
   <g id="patch_211">
    <path clip-path="url(#pb7b7108758)" d="M 263.041278 467.1432 
L 375.922809 467.1432 
L 375.922809 389.006064 
L 263.041278 389.006064 
z
" style="fill:#1f77b4;"/>
   </g>
   <g id="patch_212">
    <path clip-path="url(#pb7b7108758)" d="M 263.041278 467.1432 
L 375.922809 467.1432 
L 375.922809 381.307824 
L 263.041278 381.307824 
z
" style="fill:#1f77b4;"/>
   </g>
   <g id="patch_213">
    <path clip-path="url(#pb7b7108758)" d="M 263.041278 467.1432 
L 375.922809 467.1432 
L 375.922809 390.1608 
L 263.041278 390.1608 
z
" style="fill:#1f77b4;"/>
   </g>
   <g id="patch_214">
    <path clip-path="url(#pb7b7108758)" d="M 263.041278 467.1432 
L 375.922809 467.1432 
L 375.922809 268.528608 
L 263.041278 268.528608 
z
" style="fill:#1f77b4;"/>
   </g>
   <g id="patch_215">
    <path clip-path="url(#pb7b7108758)" d="M 263.041278 467.1432 
L 375.922809 467.1432 
L 375.922809 120.7224 
L 263.041278 120.7224 
z
" style="fill:#1f77b4;"/>
   </g>
   <g id="patch_216">
    <path clip-path="url(#pb7b7108758)" d="M 263.041278 467.1432 
L 375.922809 467.1432 
L 375.922809 370.9152 
L 263.041278 370.9152 
z
" style="fill:#1f77b4;"/>
   </g>
   <g id="patch_217">
    <path clip-path="url(#pb7b7108758)" d="M 263.041278 467.1432 
L 375.922809 467.1432 
L 375.922809 216.9504 
L 263.041278 216.9504 
z
" style="fill:#1f77b4;"/>
   </g>
   <g id="patch_218">
    <path clip-path="url(#pb7b7108758)" d="M 263.041278 467.1432 
L 375.922809 467.1432 
L 375.922809 424.80288 
L 263.041278 424.80288 
z
" style="fill:#1f77b4;"/>
   </g>
   <g id="patch_219">
    <path clip-path="url(#pb7b7108758)" d="M 263.041278 467.1432 
L 375.922809 467.1432 
L 375.922809 351.6696 
L 263.041278 351.6696 
z
" style="fill:#1f77b4;"/>
   </g>
   <g id="patch_220">
    <path clip-path="url(#pb7b7108758)" d="M 263.041278 467.1432 
L 375.922809 467.1432 
L 375.922809 409.4064 
L 263.041278 409.4064 
z
" style="fill:#1f77b4;"/>
   </g>
   <g id="patch_221">
    <path clip-path="url(#pb7b7108758)" d="M 263.041278 467.1432 
L 375.922809 467.1432 
L 375.922809 411.715872 
L 263.041278 411.715872 
z
" style="fill:#1f77b4;"/>
   </g>
   <g id="patch_222">
    <path clip-path="url(#pb7b7108758)" d="M 263.041278 467.1432 
L 375.922809 467.1432 
L 375.922809 348.205392 
L 263.041278 348.205392 
z
" style="fill:#1f77b4;"/>
   </g>
   <g id="patch_223">
    <path clip-path="url(#pb7b7108758)" d="M 545.245105 467.1432 
L 658.126636 467.1432 
L 658.126636 382.46256 
L 545.245105 382.46256 
z
" style="fill:#1f77b4;"/>
   </g>
   <g id="patch_224">
    <path clip-path="url(#pb7b7108758)" d="M 545.245105 467.1432 
L 658.126636 467.1432 
L 658.126636 333.193824 
L 545.245105 333.193824 
z
" style="fill:#1f77b4;"/>
   </g>
   <g id="patch_225">
    <path clip-path="url(#pb7b7108758)" d="M 545.245105 467.1432 
L 658.126636 467.1432 
L 658.126636 393.240096 
L 545.245105 393.240096 
z
" style="fill:#1f77b4;"/>
   </g>
   <g id="patch_226">
    <path clip-path="url(#pb7b7108758)" d="M 545.245105 467.1432 
L 658.126636 467.1432 
L 658.126636 351.6696 
L 545.245105 351.6696 
z
" style="fill:#1f77b4;"/>
   </g>
   <g id="patch_227">
    <path clip-path="url(#pb7b7108758)" d="M 545.245105 467.1432 
L 658.126636 467.1432 
L 658.126636 406.327104 
L 545.245105 406.327104 
z
" style="fill:#1f77b4;"/>
   </g>
   <g id="patch_228">
    <path clip-path="url(#pb7b7108758)" d="M 545.245105 467.1432 
L 658.126636 467.1432 
L 658.126636 370.9152 
L 545.245105 370.9152 
z
" style="fill:#1f77b4;"/>
   </g>
   <g id="patch_229">
    <path clip-path="url(#pb7b7108758)" d="M 545.245105 467.1432 
L 658.126636 467.1432 
L 658.126636 390.1608 
L 545.245105 390.1608 
z
" style="fill:#1f77b4;"/>
   </g>
   <g id="patch_230">
    <path clip-path="url(#pb7b7108758)" d="M 263.041278 467.1432 
L 375.922809 467.1432 
L 375.922809 351.6696 
L 263.041278 351.6696 
z
" style="fill:#1f77b4;"/>
   </g>
   <g id="patch_231">
    <path clip-path="url(#pb7b7108758)" d="M 263.041278 467.1432 
L 375.922809 467.1432 
L 375.922809 362.447136 
L 263.041278 362.447136 
z
" style="fill:#1f77b4;"/>
   </g>
   <g id="patch_232">
    <path clip-path="url(#pb7b7108758)" d="M 263.041278 467.1432 
L 375.922809 467.1432 
L 375.922809 356.288544 
L 263.041278 356.288544 
z
" style="fill:#1f77b4;"/>
   </g>
   <g id="patch_233">
    <path clip-path="url(#pb7b7108758)" d="M 263.041278 467.1432 
L 375.922809 467.1432 
L 375.922809 390.1608 
L 263.041278 390.1608 
z
" style="fill:#1f77b4;"/>
   </g>
   <g id="patch_234">
    <path clip-path="url(#pb7b7108758)" d="M 263.041278 467.1432 
L 375.922809 467.1432 
L 375.922809 351.6696 
L 263.041278 351.6696 
z
" style="fill:#1f77b4;"/>
   </g>
   <g id="patch_235">
    <path clip-path="url(#pb7b7108758)" d="M 263.041278 467.1432 
L 375.922809 467.1432 
L 375.922809 336.658032 
L 263.041278 336.658032 
z
" style="fill:#1f77b4;"/>
   </g>
   <g id="patch_236">
    <path clip-path="url(#pb7b7108758)" d="M 263.041278 467.1432 
L 375.922809 467.1432 
L 375.922809 410.561136 
L 263.041278 410.561136 
z
" style="fill:#1f77b4;"/>
   </g>
   <g id="patch_237">
    <path clip-path="url(#pb7b7108758)" d="M 263.041278 467.1432 
L 375.922809 467.1432 
L 375.922809 351.6696 
L 263.041278 351.6696 
z
" style="fill:#1f77b4;"/>
   </g>
   <g id="patch_238">
    <path clip-path="url(#pb7b7108758)" d="M 263.041278 467.1432 
L 375.922809 467.1432 
L 375.922809 419.0292 
L 263.041278 419.0292 
z
" style="fill:#1f77b4;"/>
   </g>
   <g id="patch_239">
    <path clip-path="url(#pb7b7108758)" d="M 263.041278 467.1432 
L 375.922809 467.1432 
L 375.922809 428.652 
L 263.041278 428.652 
z
" style="fill:#1f77b4;"/>
   </g>
   <g id="patch_240">
    <path clip-path="url(#pb7b7108758)" d="M 263.041278 467.1432 
L 375.922809 467.1432 
L 375.922809 422.108496 
L 263.041278 422.108496 
z
" style="fill:#1f77b4;"/>
   </g>
   <g id="patch_241">
    <path clip-path="url(#pb7b7108758)" d="M 263.041278 467.1432 
L 375.922809 467.1432 
L 375.922809 287.389296 
L 263.041278 287.389296 
z
" style="fill:#1f77b4;"/>
   </g>
   <g id="patch_242">
    <path clip-path="url(#pb7b7108758)" d="M 263.041278 467.1432 
L 375.922809 467.1432 
L 375.922809 239.275296 
L 263.041278 239.275296 
z
" style="fill:#1f77b4;"/>
   </g>
   <g id="patch_243">
    <path clip-path="url(#pb7b7108758)" d="M 263.041278 467.1432 
L 375.922809 467.1432 
L 375.922809 390.1608 
L 263.041278 390.1608 
z
" style="fill:#1f77b4;"/>
   </g>
   <g id="patch_244">
    <path clip-path="url(#pb7b7108758)" d="M 263.041278 467.1432 
L 375.922809 467.1432 
L 375.922809 390.1608 
L 263.041278 390.1608 
z
" style="fill:#1f77b4;"/>
   </g>
   <g id="patch_245">
    <path clip-path="url(#pb7b7108758)" d="M 263.041278 467.1432 
L 375.922809 467.1432 
L 375.922809 399.7836 
L 263.041278 399.7836 
z
" style="fill:#1f77b4;"/>
   </g>
   <g id="patch_246">
    <path clip-path="url(#pb7b7108758)" d="M 404.143191 467.1432 
L 517.024722 467.1432 
L 517.024722 351.6696 
L 404.143191 351.6696 
z
" style="fill:#1f77b4;"/>
   </g>
   <g id="matplotlib.axis_1">
    <g id="xtick_1">
     <g id="line2d_1">
      <defs>
       <path d="M 0 0 
L 0 3.5 
" id="m5603f7e7e8" style="stroke:#000000;stroke-width:0.8;"/>
      </defs>
      <g>
       <use style="stroke:#000000;stroke-width:0.8;" x="178.380129" xlink:href="#m5603f7e7e8" y="467.1432"/>
      </g>
     </g>
     <g id="text_1">
      <!-- Sun -->
      <defs>
       <path d="M 53.515625 70.515625 
L 53.515625 60.890625 
Q 47.90625 63.578125 42.921875 64.890625 
Q 37.9375 66.21875 33.296875 66.21875 
Q 25.25 66.21875 20.875 63.09375 
Q 16.5 59.96875 16.5 54.203125 
Q 16.5 49.359375 19.40625 46.890625 
Q 22.3125 44.4375 30.421875 42.921875 
L 36.375 41.703125 
Q 47.40625 39.59375 52.65625 34.296875 
Q 57.90625 29 57.90625 20.125 
Q 57.90625 9.515625 50.796875 4.046875 
Q 43.703125 -1.421875 29.984375 -1.421875 
Q 24.8125 -1.421875 18.96875 -0.25 
Q 13.140625 0.921875 6.890625 3.21875 
L 6.890625 13.375 
Q 12.890625 10.015625 18.65625 8.296875 
Q 24.421875 6.59375 29.984375 6.59375 
Q 38.421875 6.59375 43.015625 9.90625 
Q 47.609375 13.234375 47.609375 19.390625 
Q 47.609375 24.75 44.3125 27.78125 
Q 41.015625 30.8125 33.5 32.328125 
L 27.484375 33.5 
Q 16.453125 35.6875 11.515625 40.375 
Q 6.59375 45.0625 6.59375 53.421875 
Q 6.59375 63.09375 13.40625 68.65625 
Q 20.21875 74.21875 32.171875 74.21875 
Q 37.3125 74.21875 42.625 73.28125 
Q 47.953125 72.359375 53.515625 70.515625 
z
" id="DejaVuSans-83"/>
       <path d="M 8.5 21.578125 
L 8.5 54.6875 
L 17.484375 54.6875 
L 17.484375 21.921875 
Q 17.484375 14.15625 20.5 10.265625 
Q 23.53125 6.390625 29.59375 6.390625 
Q 36.859375 6.390625 41.078125 11.03125 
Q 45.3125 15.671875 45.3125 23.6875 
L 45.3125 54.6875 
L 54.296875 54.6875 
L 54.296875 0 
L 45.3125 0 
L 45.3125 8.40625 
Q 42.046875 3.421875 37.71875 1 
Q 33.40625 -1.421875 27.6875 -1.421875 
Q 18.265625 -1.421875 13.375 4.4375 
Q 8.5 10.296875 8.5 21.578125 
z
M 31.109375 56 
z
" id="DejaVuSans-117"/>
       <path d="M 54.890625 33.015625 
L 54.890625 0 
L 45.90625 0 
L 45.90625 32.71875 
Q 45.90625 40.484375 42.875 44.328125 
Q 39.84375 48.1875 33.796875 48.1875 
Q 26.515625 48.1875 22.3125 43.546875 
Q 18.109375 38.921875 18.109375 30.90625 
L 18.109375 0 
L 9.078125 0 
L 9.078125 54.6875 
L 18.109375 54.6875 
L 18.109375 46.1875 
Q 21.34375 51.125 25.703125 53.5625 
Q 30.078125 56 35.796875 56 
Q 45.21875 56 50.046875 50.171875 
Q 54.890625 44.34375 54.890625 33.015625 
z
" id="DejaVuSans-110"/>
      </defs>
      <g transform="translate(168.86841 481.741638)scale(0.1 -0.1)">
       <use xlink:href="#DejaVuSans-83"/>
       <use x="63.476562" xlink:href="#DejaVuSans-117"/>
       <use x="126.855469" xlink:href="#DejaVuSans-110"/>
      </g>
     </g>
    </g>
    <g id="xtick_2">
     <g id="line2d_2">
      <g>
       <use style="stroke:#000000;stroke-width:0.8;" x="319.482043" xlink:href="#m5603f7e7e8" y="467.1432"/>
      </g>
     </g>
     <g id="text_2">
      <!-- Sat -->
      <defs>
       <path d="M 34.28125 27.484375 
Q 23.390625 27.484375 19.1875 25 
Q 14.984375 22.515625 14.984375 16.5 
Q 14.984375 11.71875 18.140625 8.90625 
Q 21.296875 6.109375 26.703125 6.109375 
Q 34.1875 6.109375 38.703125 11.40625 
Q 43.21875 16.703125 43.21875 25.484375 
L 43.21875 27.484375 
z
M 52.203125 31.203125 
L 52.203125 0 
L 43.21875 0 
L 43.21875 8.296875 
Q 40.140625 3.328125 35.546875 0.953125 
Q 30.953125 -1.421875 24.3125 -1.421875 
Q 15.921875 -1.421875 10.953125 3.296875 
Q 6 8.015625 6 15.921875 
Q 6 25.140625 12.171875 29.828125 
Q 18.359375 34.515625 30.609375 34.515625 
L 43.21875 34.515625 
L 43.21875 35.40625 
Q 43.21875 41.609375 39.140625 45 
Q 35.0625 48.390625 27.6875 48.390625 
Q 23 48.390625 18.546875 47.265625 
Q 14.109375 46.140625 10.015625 43.890625 
L 10.015625 52.203125 
Q 14.9375 54.109375 19.578125 55.046875 
Q 24.21875 56 28.609375 56 
Q 40.484375 56 46.34375 49.84375 
Q 52.203125 43.703125 52.203125 31.203125 
z
" id="DejaVuSans-97"/>
       <path d="M 18.3125 70.21875 
L 18.3125 54.6875 
L 36.8125 54.6875 
L 36.8125 47.703125 
L 18.3125 47.703125 
L 18.3125 18.015625 
Q 18.3125 11.328125 20.140625 9.421875 
Q 21.96875 7.515625 27.59375 7.515625 
L 36.8125 7.515625 
L 36.8125 0 
L 27.59375 0 
Q 17.1875 0 13.234375 3.875 
Q 9.28125 7.765625 9.28125 18.015625 
L 9.28125 47.703125 
L 2.6875 47.703125 
L 2.6875 54.6875 
L 9.28125 54.6875 
L 9.28125 70.21875 
z
" id="DejaVuSans-116"/>
      </defs>
      <g transform="translate(311.283606 481.741638)scale(0.1 -0.1)">
       <use xlink:href="#DejaVuSans-83"/>
       <use x="63.476562" xlink:href="#DejaVuSans-97"/>
       <use x="124.755859" xlink:href="#DejaVuSans-116"/>
      </g>
     </g>
    </g>
    <g id="xtick_3">
     <g id="line2d_3">
      <g>
       <use style="stroke:#000000;stroke-width:0.8;" x="460.583957" xlink:href="#m5603f7e7e8" y="467.1432"/>
      </g>
     </g>
     <g id="text_3">
      <!-- Thur -->
      <defs>
       <path d="M -0.296875 72.90625 
L 61.375 72.90625 
L 61.375 64.59375 
L 35.5 64.59375 
L 35.5 0 
L 25.59375 0 
L 25.59375 64.59375 
L -0.296875 64.59375 
z
" id="DejaVuSans-84"/>
       <path d="M 54.890625 33.015625 
L 54.890625 0 
L 45.90625 0 
L 45.90625 32.71875 
Q 45.90625 40.484375 42.875 44.328125 
Q 39.84375 48.1875 33.796875 48.1875 
Q 26.515625 48.1875 22.3125 43.546875 
Q 18.109375 38.921875 18.109375 30.90625 
L 18.109375 0 
L 9.078125 0 
L 9.078125 75.984375 
L 18.109375 75.984375 
L 18.109375 46.1875 
Q 21.34375 51.125 25.703125 53.5625 
Q 30.078125 56 35.796875 56 
Q 45.21875 56 50.046875 50.171875 
Q 54.890625 44.34375 54.890625 33.015625 
z
" id="DejaVuSans-104"/>
       <path d="M 41.109375 46.296875 
Q 39.59375 47.171875 37.8125 47.578125 
Q 36.03125 48 33.890625 48 
Q 26.265625 48 22.1875 43.046875 
Q 18.109375 38.09375 18.109375 28.8125 
L 18.109375 0 
L 9.078125 0 
L 9.078125 54.6875 
L 18.109375 54.6875 
L 18.109375 46.1875 
Q 20.953125 51.171875 25.484375 53.578125 
Q 30.03125 56 36.53125 56 
Q 37.453125 56 38.578125 55.875 
Q 39.703125 55.765625 41.0625 55.515625 
z
" id="DejaVuSans-114"/>
      </defs>
      <g transform="translate(449.137082 481.741638)scale(0.1 -0.1)">
       <use xlink:href="#DejaVuSans-84"/>
       <use x="61.083984" xlink:href="#DejaVuSans-104"/>
       <use x="124.462891" xlink:href="#DejaVuSans-117"/>
       <use x="187.841797" xlink:href="#DejaVuSans-114"/>
      </g>
     </g>
    </g>
    <g id="xtick_4">
     <g id="line2d_4">
      <g>
       <use style="stroke:#000000;stroke-width:0.8;" x="601.685871" xlink:href="#m5603f7e7e8" y="467.1432"/>
      </g>
     </g>
     <g id="text_4">
      <!-- Fri -->
      <defs>
       <path d="M 9.8125 72.90625 
L 51.703125 72.90625 
L 51.703125 64.59375 
L 19.671875 64.59375 
L 19.671875 43.109375 
L 48.578125 43.109375 
L 48.578125 34.8125 
L 19.671875 34.8125 
L 19.671875 0 
L 9.8125 0 
z
" id="DejaVuSans-70"/>
       <path d="M 9.421875 54.6875 
L 18.40625 54.6875 
L 18.40625 0 
L 9.421875 0 
z
M 9.421875 75.984375 
L 18.40625 75.984375 
L 18.40625 64.59375 
L 9.421875 64.59375 
z
" id="DejaVuSans-105"/>
      </defs>
      <g transform="translate(595.371027 481.741638)scale(0.1 -0.1)">
       <use xlink:href="#DejaVuSans-70"/>
       <use x="57.410156" xlink:href="#DejaVuSans-114"/>
       <use x="98.523438" xlink:href="#DejaVuSans-105"/>
      </g>
     </g>
    </g>
    <g id="text_5">
     <!-- Day -->
     <defs>
      <path d="M 19.671875 64.796875 
L 19.671875 8.109375 
L 31.59375 8.109375 
Q 46.6875 8.109375 53.6875 14.9375 
Q 60.6875 21.78125 60.6875 36.53125 
Q 60.6875 51.171875 53.6875 57.984375 
Q 46.6875 64.796875 31.59375 64.796875 
z
M 9.8125 72.90625 
L 30.078125 72.90625 
Q 51.265625 72.90625 61.171875 64.09375 
Q 71.09375 55.28125 71.09375 36.53125 
Q 71.09375 17.671875 61.125 8.828125 
Q 51.171875 0 30.078125 0 
L 9.8125 0 
z
" id="DejaVuSans-68"/>
      <path d="M 32.171875 -5.078125 
Q 28.375 -14.84375 24.75 -17.8125 
Q 21.140625 -20.796875 15.09375 -20.796875 
L 7.90625 -20.796875 
L 7.90625 -13.28125 
L 13.1875 -13.28125 
Q 16.890625 -13.28125 18.9375 -11.515625 
Q 21 -9.765625 23.484375 -3.21875 
L 25.09375 0.875 
L 2.984375 54.6875 
L 12.5 54.6875 
L 29.59375 11.921875 
L 46.6875 54.6875 
L 56.203125 54.6875 
z
" id="DejaVuSans-121"/>
     </defs>
     <g transform="translate(380.159562 495.419762)scale(0.1 -0.1)">
      <use xlink:href="#DejaVuSans-68"/>
      <use x="77.001953" xlink:href="#DejaVuSans-97"/>
      <use x="138.28125" xlink:href="#DejaVuSans-121"/>
     </g>
    </g>
   </g>
   <g id="matplotlib.axis_2">
    <g id="ytick_1">
     <g id="line2d_5">
      <defs>
       <path d="M 0 0 
L -3.5 0 
" id="m69f62d9d28" style="stroke:#000000;stroke-width:0.8;"/>
      </defs>
      <g>
       <use style="stroke:#000000;stroke-width:0.8;" x="95.13" xlink:href="#m69f62d9d28" y="467.1432"/>
      </g>
     </g>
     <g id="text_6">
      <!-- 0 -->
      <defs>
       <path d="M 31.78125 66.40625 
Q 24.171875 66.40625 20.328125 58.90625 
Q 16.5 51.421875 16.5 36.375 
Q 16.5 21.390625 20.328125 13.890625 
Q 24.171875 6.390625 31.78125 6.390625 
Q 39.453125 6.390625 43.28125 13.890625 
Q 47.125 21.390625 47.125 36.375 
Q 47.125 51.421875 43.28125 58.90625 
Q 39.453125 66.40625 31.78125 66.40625 
z
M 31.78125 74.21875 
Q 44.046875 74.21875 50.515625 64.515625 
Q 56.984375 54.828125 56.984375 36.375 
Q 56.984375 17.96875 50.515625 8.265625 
Q 44.046875 -1.421875 31.78125 -1.421875 
Q 19.53125 -1.421875 13.0625 8.265625 
Q 6.59375 17.96875 6.59375 36.375 
Q 6.59375 54.828125 13.0625 64.515625 
Q 19.53125 74.21875 31.78125 74.21875 
z
" id="DejaVuSans-48"/>
      </defs>
      <g transform="translate(81.7675 470.942419)scale(0.1 -0.1)">
       <use xlink:href="#DejaVuSans-48"/>
      </g>
     </g>
    </g>
    <g id="ytick_2">
     <g id="line2d_6">
      <g>
       <use style="stroke:#000000;stroke-width:0.8;" x="95.13" xlink:href="#m69f62d9d28" y="390.1608"/>
      </g>
     </g>
     <g id="text_7">
      <!-- 2 -->
      <defs>
       <path d="M 19.1875 8.296875 
L 53.609375 8.296875 
L 53.609375 0 
L 7.328125 0 
L 7.328125 8.296875 
Q 12.9375 14.109375 22.625 23.890625 
Q 32.328125 33.6875 34.8125 36.53125 
Q 39.546875 41.84375 41.421875 45.53125 
Q 43.3125 49.21875 43.3125 52.78125 
Q 43.3125 58.59375 39.234375 62.25 
Q 35.15625 65.921875 28.609375 65.921875 
Q 23.96875 65.921875 18.8125 64.3125 
Q 13.671875 62.703125 7.8125 59.421875 
L 7.8125 69.390625 
Q 13.765625 71.78125 18.9375 73 
Q 24.125 74.21875 28.421875 74.21875 
Q 39.75 74.21875 46.484375 68.546875 
Q 53.21875 62.890625 53.21875 53.421875 
Q 53.21875 48.921875 51.53125 44.890625 
Q 49.859375 40.875 45.40625 35.40625 
Q 44.1875 33.984375 37.640625 27.21875 
Q 31.109375 20.453125 19.1875 8.296875 
z
" id="DejaVuSans-50"/>
      </defs>
      <g transform="translate(81.7675 393.960019)scale(0.1 -0.1)">
       <use xlink:href="#DejaVuSans-50"/>
      </g>
     </g>
    </g>
    <g id="ytick_3">
     <g id="line2d_7">
      <g>
       <use style="stroke:#000000;stroke-width:0.8;" x="95.13" xlink:href="#m69f62d9d28" y="313.1784"/>
      </g>
     </g>
     <g id="text_8">
      <!-- 4 -->
      <defs>
       <path d="M 37.796875 64.3125 
L 12.890625 25.390625 
L 37.796875 25.390625 
z
M 35.203125 72.90625 
L 47.609375 72.90625 
L 47.609375 25.390625 
L 58.015625 25.390625 
L 58.015625 17.1875 
L 47.609375 17.1875 
L 47.609375 0 
L 37.796875 0 
L 37.796875 17.1875 
L 4.890625 17.1875 
L 4.890625 26.703125 
z
" id="DejaVuSans-52"/>
      </defs>
      <g transform="translate(81.7675 316.977619)scale(0.1 -0.1)">
       <use xlink:href="#DejaVuSans-52"/>
      </g>
     </g>
    </g>
    <g id="ytick_4">
     <g id="line2d_8">
      <g>
       <use style="stroke:#000000;stroke-width:0.8;" x="95.13" xlink:href="#m69f62d9d28" y="236.196"/>
      </g>
     </g>
     <g id="text_9">
      <!-- 6 -->
      <defs>
       <path d="M 33.015625 40.375 
Q 26.375 40.375 22.484375 35.828125 
Q 18.609375 31.296875 18.609375 23.390625 
Q 18.609375 15.53125 22.484375 10.953125 
Q 26.375 6.390625 33.015625 6.390625 
Q 39.65625 6.390625 43.53125 10.953125 
Q 47.40625 15.53125 47.40625 23.390625 
Q 47.40625 31.296875 43.53125 35.828125 
Q 39.65625 40.375 33.015625 40.375 
z
M 52.59375 71.296875 
L 52.59375 62.3125 
Q 48.875 64.0625 45.09375 64.984375 
Q 41.3125 65.921875 37.59375 65.921875 
Q 27.828125 65.921875 22.671875 59.328125 
Q 17.53125 52.734375 16.796875 39.40625 
Q 19.671875 43.65625 24.015625 45.921875 
Q 28.375 48.1875 33.59375 48.1875 
Q 44.578125 48.1875 50.953125 41.515625 
Q 57.328125 34.859375 57.328125 23.390625 
Q 57.328125 12.15625 50.6875 5.359375 
Q 44.046875 -1.421875 33.015625 -1.421875 
Q 20.359375 -1.421875 13.671875 8.265625 
Q 6.984375 17.96875 6.984375 36.375 
Q 6.984375 53.65625 15.1875 63.9375 
Q 23.390625 74.21875 37.203125 74.21875 
Q 40.921875 74.21875 44.703125 73.484375 
Q 48.484375 72.75 52.59375 71.296875 
z
" id="DejaVuSans-54"/>
      </defs>
      <g transform="translate(81.7675 239.995219)scale(0.1 -0.1)">
       <use xlink:href="#DejaVuSans-54"/>
      </g>
     </g>
    </g>
    <g id="ytick_5">
     <g id="line2d_9">
      <g>
       <use style="stroke:#000000;stroke-width:0.8;" x="95.13" xlink:href="#m69f62d9d28" y="159.2136"/>
      </g>
     </g>
     <g id="text_10">
      <!-- 8 -->
      <defs>
       <path d="M 31.78125 34.625 
Q 24.75 34.625 20.71875 30.859375 
Q 16.703125 27.09375 16.703125 20.515625 
Q 16.703125 13.921875 20.71875 10.15625 
Q 24.75 6.390625 31.78125 6.390625 
Q 38.8125 6.390625 42.859375 10.171875 
Q 46.921875 13.96875 46.921875 20.515625 
Q 46.921875 27.09375 42.890625 30.859375 
Q 38.875 34.625 31.78125 34.625 
z
M 21.921875 38.8125 
Q 15.578125 40.375 12.03125 44.71875 
Q 8.5 49.078125 8.5 55.328125 
Q 8.5 64.0625 14.71875 69.140625 
Q 20.953125 74.21875 31.78125 74.21875 
Q 42.671875 74.21875 48.875 69.140625 
Q 55.078125 64.0625 55.078125 55.328125 
Q 55.078125 49.078125 51.53125 44.71875 
Q 48 40.375 41.703125 38.8125 
Q 48.828125 37.15625 52.796875 32.3125 
Q 56.78125 27.484375 56.78125 20.515625 
Q 56.78125 9.90625 50.3125 4.234375 
Q 43.84375 -1.421875 31.78125 -1.421875 
Q 19.734375 -1.421875 13.25 4.234375 
Q 6.78125 9.90625 6.78125 20.515625 
Q 6.78125 27.484375 10.78125 32.3125 
Q 14.796875 37.15625 21.921875 38.8125 
z
M 18.3125 54.390625 
Q 18.3125 48.734375 21.84375 45.5625 
Q 25.390625 42.390625 31.78125 42.390625 
Q 38.140625 42.390625 41.71875 45.5625 
Q 45.3125 48.734375 45.3125 54.390625 
Q 45.3125 60.0625 41.71875 63.234375 
Q 38.140625 66.40625 31.78125 66.40625 
Q 25.390625 66.40625 21.84375 63.234375 
Q 18.3125 60.0625 18.3125 54.390625 
z
" id="DejaVuSans-56"/>
      </defs>
      <g transform="translate(81.7675 163.012819)scale(0.1 -0.1)">
       <use xlink:href="#DejaVuSans-56"/>
      </g>
     </g>
    </g>
    <g id="ytick_6">
     <g id="line2d_10">
      <g>
       <use style="stroke:#000000;stroke-width:0.8;" x="95.13" xlink:href="#m69f62d9d28" y="82.2312"/>
      </g>
     </g>
     <g id="text_11">
      <!-- 10 -->
      <defs>
       <path d="M 12.40625 8.296875 
L 28.515625 8.296875 
L 28.515625 63.921875 
L 10.984375 60.40625 
L 10.984375 69.390625 
L 28.421875 72.90625 
L 38.28125 72.90625 
L 38.28125 8.296875 
L 54.390625 8.296875 
L 54.390625 0 
L 12.40625 0 
z
" id="DejaVuSans-49"/>
      </defs>
      <g transform="translate(75.405 86.030419)scale(0.1 -0.1)">
       <use xlink:href="#DejaVuSans-49"/>
       <use x="63.623047" xlink:href="#DejaVuSans-48"/>
      </g>
     </g>
    </g>
    <g id="text_12">
     <!-- Tip -->
     <defs>
      <path d="M 18.109375 8.203125 
L 18.109375 -20.796875 
L 9.078125 -20.796875 
L 9.078125 54.6875 
L 18.109375 54.6875 
L 18.109375 46.390625 
Q 20.953125 51.265625 25.265625 53.625 
Q 29.59375 56 35.59375 56 
Q 45.5625 56 51.78125 48.09375 
Q 58.015625 40.1875 58.015625 27.296875 
Q 58.015625 14.40625 51.78125 6.484375 
Q 45.5625 -1.421875 35.59375 -1.421875 
Q 29.59375 -1.421875 25.265625 0.953125 
Q 20.953125 3.328125 18.109375 8.203125 
z
M 48.6875 27.296875 
Q 48.6875 37.203125 44.609375 42.84375 
Q 40.53125 48.484375 33.40625 48.484375 
Q 26.265625 48.484375 22.1875 42.84375 
Q 18.109375 37.203125 18.109375 27.296875 
Q 18.109375 17.390625 22.1875 11.75 
Q 26.265625 6.109375 33.40625 6.109375 
Q 40.53125 6.109375 44.609375 11.75 
Q 48.6875 17.390625 48.6875 27.296875 
z
" id="DejaVuSans-112"/>
     </defs>
     <g transform="translate(69.325312 272.679244)rotate(-90)scale(0.1 -0.1)">
      <use xlink:href="#DejaVuSans-84"/>
      <use x="61.037109" xlink:href="#DejaVuSans-105"/>
      <use x="88.820312" xlink:href="#DejaVuSans-112"/>
     </g>
    </g>
   </g>
   <g id="patch_247">
    <path d="M 95.13 467.1432 
L 95.13 62.9856 
" style="fill:none;stroke:#000000;stroke-linecap:square;stroke-linejoin:miter;stroke-width:0.8;"/>
   </g>
   <g id="patch_248">
    <path d="M 684.936 467.1432 
L 684.936 62.9856 
" style="fill:none;stroke:#000000;stroke-linecap:square;stroke-linejoin:miter;stroke-width:0.8;"/>
   </g>
   <g id="patch_249">
    <path d="M 95.13 467.1432 
L 684.936 467.1432 
" style="fill:none;stroke:#000000;stroke-linecap:square;stroke-linejoin:miter;stroke-width:0.8;"/>
   </g>
   <g id="patch_250">
    <path d="M 95.13 62.9856 
L 684.936 62.9856 
" style="fill:none;stroke:#000000;stroke-linecap:square;stroke-linejoin:miter;stroke-width:0.8;"/>
   </g>
   <g id="text_13">
    <!-- Bar Chart -->
    <defs>
     <path d="M 19.671875 34.8125 
L 19.671875 8.109375 
L 35.5 8.109375 
Q 43.453125 8.109375 47.28125 11.40625 
Q 51.125 14.703125 51.125 21.484375 
Q 51.125 28.328125 47.28125 31.5625 
Q 43.453125 34.8125 35.5 34.8125 
z
M 19.671875 64.796875 
L 19.671875 42.828125 
L 34.28125 42.828125 
Q 41.5 42.828125 45.03125 45.53125 
Q 48.578125 48.25 48.578125 53.8125 
Q 48.578125 59.328125 45.03125 62.0625 
Q 41.5 64.796875 34.28125 64.796875 
z
M 9.8125 72.90625 
L 35.015625 72.90625 
Q 46.296875 72.90625 52.390625 68.21875 
Q 58.5 63.53125 58.5 54.890625 
Q 58.5 48.1875 55.375 44.234375 
Q 52.25 40.28125 46.1875 39.3125 
Q 53.46875 37.75 57.5 32.78125 
Q 61.53125 27.828125 61.53125 20.40625 
Q 61.53125 10.640625 54.890625 5.3125 
Q 48.25 0 35.984375 0 
L 9.8125 0 
z
" id="DejaVuSans-66"/>
     <path id="DejaVuSans-32"/>
     <path d="M 64.40625 67.28125 
L 64.40625 56.890625 
Q 59.421875 61.53125 53.78125 63.8125 
Q 48.140625 66.109375 41.796875 66.109375 
Q 29.296875 66.109375 22.65625 58.46875 
Q 16.015625 50.828125 16.015625 36.375 
Q 16.015625 21.96875 22.65625 14.328125 
Q 29.296875 6.6875 41.796875 6.6875 
Q 48.140625 6.6875 53.78125 8.984375 
Q 59.421875 11.28125 64.40625 15.921875 
L 64.40625 5.609375 
Q 59.234375 2.09375 53.4375 0.328125 
Q 47.65625 -1.421875 41.21875 -1.421875 
Q 24.65625 -1.421875 15.125 8.703125 
Q 5.609375 18.84375 5.609375 36.375 
Q 5.609375 53.953125 15.125 64.078125 
Q 24.65625 74.21875 41.21875 74.21875 
Q 47.75 74.21875 53.53125 72.484375 
Q 59.328125 70.75 64.40625 67.28125 
z
" id="DejaVuSans-67"/>
    </defs>
    <g transform="translate(361.378312 56.9856)scale(0.12 -0.12)">
     <use xlink:href="#DejaVuSans-66"/>
     <use x="68.603516" xlink:href="#DejaVuSans-97"/>
     <use x="129.882812" xlink:href="#DejaVuSans-114"/>
     <use x="170.996094" xlink:href="#DejaVuSans-32"/>
     <use x="202.783203" xlink:href="#DejaVuSans-67"/>
     <use x="272.607422" xlink:href="#DejaVuSans-104"/>
     <use x="335.986328" xlink:href="#DejaVuSans-97"/>
     <use x="397.265625" xlink:href="#DejaVuSans-114"/>
     <use x="438.378906" xlink:href="#DejaVuSans-116"/>
    </g>
   </g>
  </g>
 </g>
 <defs>
  <clipPath id="pb7b7108758">
   <rect height="404.1576" width="589.806" x="95.13" y="62.9856"/>
  </clipPath>
 </defs>
</svg>
